<?xml version="1.0" encoding="utf-8"?>
<!-- Generator: Adobe Illustrator 27.5.0, SVG Export Plug-In . SVG Version: 6.00 Build 0)  -->
<svg version="1.1" id="Layer_1" xmlns="http://www.w3.org/2000/svg" xmlns:xlink="http://www.w3.org/1999/xlink" x="0px" y="0px"
	 viewBox="0 0 512 512" style="enable-background:new 0 0 512 512;" xml:space="preserve">
<style type="text/css">
	.st0{fill:#F4E4BE;}
</style>
<path class="st0" d="M256,0c30.9,0,56,25.1,56,56s-25.1,56-56,56s-56-25.1-56-56S225.1,0,256,0z M134.1,143.8
	c3.3-13,15-23.8,30.2-23.8c12.3,0,22.6,7.2,27.7,17c12,23.2,36.2,39,64,39s52-15.8,64-39c5.1-9.8,15.4-17,27.7-17
	c15.3,0,27,10.8,30.2,23.8c7,27.8,32.2,48.3,62.1,48.3c10.8,0,21-2.7,29.8-7.4c8.4-4.4,18.9-4.5,27.6,0.9c13,8,17.1,25,9.2,38
	L399.7,400H384h-40.4H168.4H128h-15.7L5.4,223.6c-7.9-13-3.8-30,9.2-38c8.7-5.3,19.2-5.3,27.6-0.9c8.9,4.7,19,7.4,29.8,7.4
	C101.9,192.1,127.1,171.6,134.1,143.8z M256,224L256,224L256,224L256,224z M112,432h288l41.4,41.4c4.2,4.2,6.6,10,6.6,16
	c0,12.5-10.1,22.6-22.6,22.6H86.6C74.1,512,64,501.9,64,489.4c0-6,2.4-11.8,6.6-16L112,432z"/>
</svg>
